<svg width="16" height="16" viewBox="0 0 16 16" fill="none" xmlns="http://www.w3.org/2000/svg">
<g clip-path="url(#clip0_629_13958)">
<path d="M12.3422 7.95397C12.3356 6.7195 12.8864 5.78777 14.0014 5.10158C13.3775 4.19676 12.4351 3.69894 11.1907 3.60139C10.0127 3.50721 8.72513 4.29767 8.25392 4.29767C7.75616 4.29767 6.61463 3.63503 5.71866 3.63503C3.86699 3.6653 1.89917 5.13186 1.89917 8.11542C1.89917 8.9967 2.05845 9.90713 2.37702 10.8467C2.80178 12.0812 4.33488 15.1085 5.93435 15.058C6.77059 15.0378 7.36127 14.4559 8.44971 14.4559C9.50496 14.4559 10.0525 15.058 10.985 15.058C12.5977 15.0345 13.9848 12.283 14.3897 11.0452C12.2261 10.0125 12.3422 8.01788 12.3422 7.95397V7.95397ZM10.464 2.43084C11.3699 1.34101 11.2869 0.348735 11.2604 -0.0078125C10.4607 0.0392787 9.53482 0.543827 9.0072 1.1661C8.42648 1.83211 8.08468 2.6562 8.15769 3.58457C9.02379 3.65185 9.81357 3.20112 10.464 2.43084V2.43084Z" fill="#A7C944"/>
</g>
<defs>
<clipPath id="clip0_629_13958">
<rect width="15.1163" height="15.1163" fill="white" transform="translate(0.387512 -0.0078125)"/>
</clipPath>
</defs>
</svg>
