<svg width="17" height="16" viewBox="0 0 17 16" fill="none" xmlns="http://www.w3.org/2000/svg">
<g clip-path="url(#clip0_629_12033)">
<g clip-path="url(#clip1_629_12033)">
<path d="M15.4458 7.33094C15.4458 6.74226 15.3991 6.31267 15.2979 5.86719H8.71796V8.52421H12.5802C12.5024 9.18451 12.0819 10.1789 11.1475 10.8471L11.1344 10.9361L13.2148 12.5826L13.3589 12.5973C14.6827 11.3483 15.4458 9.51066 15.4458 7.33094" fill="#4285F4"/>
<path d="M8.71796 14.3335C10.6102 14.3335 12.1987 13.6971 13.359 12.5993L11.1475 10.8491C10.5557 11.2707 9.76138 11.5651 8.71796 11.5651C6.86469 11.5651 5.29175 10.3161 4.73104 8.58984L4.64885 8.59697L2.48557 10.3074L2.45728 10.3877C3.60972 12.7265 5.97695 14.3335 8.71796 14.3335Z" fill="#34A853"/>
<path d="M4.73107 8.59059C4.58312 8.14511 4.49749 7.66776 4.49749 7.17455C4.49749 6.6813 4.58312 6.204 4.72328 5.75852L4.71936 5.66364L2.52897 3.92578L2.4573 3.96061C1.98232 4.93116 1.70978 6.02105 1.70978 7.17455C1.70978 8.32806 1.98232 9.4179 2.4573 10.3884L4.73107 8.59059" fill="#FBBC05"/>
<path d="M8.71796 2.78012C10.0339 2.78012 10.9216 3.36085 11.4278 3.84616L13.4057 1.87325C12.1909 0.719738 10.6102 0.0117188 8.71796 0.0117188C5.97695 0.0117188 3.60973 1.61867 2.45728 3.95749L4.72326 5.7554C5.29175 4.02911 6.86469 2.78012 8.71796 2.78012" fill="#EB4335"/>
</g>
</g>
<defs>
<clipPath id="clip0_629_12033">
<rect width="15.1163" height="15.1163" fill="white" transform="translate(0.953918 -0.0078125)"/>
</clipPath>
<clipPath id="clip1_629_12033">
<rect x="1.70978" y="-0.0078125" width="13.7361" height="14.3605" rx="6.86805" fill="white"/>
</clipPath>
</defs>
</svg>
