<svg width="118" height="18" viewBox="0 0 118 18" fill="none" xmlns="http://www.w3.org/2000/svg">
<path d="M2.6 17.716C1.992 17.716 1.52 17.548 1.184 17.212C0.864 16.876 0.704 16.388 0.704 15.748V2.524C0.704 1.9 0.872 1.42 1.208 1.084C1.544 0.747999 2.024 0.579999 2.648 0.579999H10.856C11.336 0.579999 11.696 0.707999 11.936 0.964C12.192 1.204 12.32 1.556 12.32 2.02C12.32 2.5 12.192 2.868 11.936 3.124C11.696 3.364 11.336 3.484 10.856 3.484H4.424V7.612H10.328C10.808 7.612 11.176 7.74 11.432 7.996C11.688 8.236 11.816 8.588 11.816 9.052C11.816 9.516 11.688 9.876 11.432 10.132C11.176 10.388 10.808 10.516 10.328 10.516H4.424V15.748C4.424 17.06 3.816 17.716 2.6 17.716ZM19.3451 17.764C18.0811 17.764 16.9771 17.516 16.0331 17.02C15.1051 16.524 14.3851 15.812 13.8731 14.884C13.3611 13.956 13.1051 12.86 13.1051 11.596C13.1051 10.652 13.2491 9.804 13.5371 9.052C13.8251 8.3 14.2411 7.66 14.7851 7.132C15.3451 6.588 16.0091 6.18 16.7771 5.908C17.5451 5.62 18.4011 5.476 19.3451 5.476C20.6091 5.476 21.7051 5.724 22.6331 6.22C23.5771 6.716 24.3051 7.42 24.8171 8.332C25.3451 9.244 25.6091 10.332 25.6091 11.596C25.6091 12.556 25.4571 13.412 25.1531 14.164C24.8651 14.916 24.4491 15.564 23.9051 16.108C23.3611 16.652 22.6971 17.068 21.9131 17.356C21.1451 17.628 20.2891 17.764 19.3451 17.764ZM19.3451 15.052C19.8731 15.052 20.3291 14.924 20.7131 14.668C21.0971 14.412 21.4011 14.036 21.6251 13.54C21.8491 13.028 21.9611 12.38 21.9611 11.596C21.9611 10.428 21.7211 9.572 21.2411 9.028C20.7611 8.468 20.1291 8.188 19.3451 8.188C18.8331 8.188 18.3771 8.308 17.9771 8.548C17.5931 8.788 17.2891 9.164 17.0651 9.676C16.8571 10.172 16.7531 10.812 16.7531 11.596C16.7531 12.764 16.9931 13.636 17.4731 14.212C17.9531 14.772 18.5771 15.052 19.3451 15.052ZM33.4779 17.764C32.2139 17.764 31.1099 17.516 30.1659 17.02C29.2379 16.524 28.5179 15.812 28.0059 14.884C27.4939 13.956 27.2379 12.86 27.2379 11.596C27.2379 10.652 27.3819 9.804 27.6699 9.052C27.9579 8.3 28.3739 7.66 28.9179 7.132C29.4779 6.588 30.1419 6.18 30.9099 5.908C31.6779 5.62 32.5339 5.476 33.4779 5.476C34.7419 5.476 35.8379 5.724 36.7659 6.22C37.7099 6.716 38.4379 7.42 38.9499 8.332C39.4779 9.244 39.7419 10.332 39.7419 11.596C39.7419 12.556 39.5899 13.412 39.2859 14.164C38.9979 14.916 38.5819 15.564 38.0379 16.108C37.4939 16.652 36.8299 17.068 36.0459 17.356C35.2779 17.628 34.4219 17.764 33.4779 17.764ZM33.4779 15.052C34.0059 15.052 34.4619 14.924 34.8459 14.668C35.2299 14.412 35.5339 14.036 35.7579 13.54C35.9819 13.028 36.0939 12.38 36.0939 11.596C36.0939 10.428 35.8539 9.572 35.3739 9.028C34.8939 8.468 34.2619 8.188 33.4779 8.188C32.9659 8.188 32.5099 8.308 32.1099 8.548C31.7259 8.788 31.4219 9.164 31.1979 9.676C30.9899 10.172 30.8859 10.812 30.8859 11.596C30.8859 12.764 31.1259 13.636 31.6059 14.212C32.0859 14.772 32.7099 15.052 33.4779 15.052ZM46.5307 17.764C45.5067 17.764 44.6027 17.516 43.8187 17.02C43.0507 16.524 42.4507 15.812 42.0187 14.884C41.5867 13.956 41.3707 12.86 41.3707 11.596C41.3707 10.332 41.5867 9.244 42.0187 8.332C42.4507 7.42 43.0507 6.716 43.8187 6.22C44.6027 5.724 45.5067 5.476 46.5307 5.476C47.4587 5.476 48.2747 5.7 48.9787 6.148C49.6987 6.596 50.1867 7.18 50.4427 7.9H50.1787V2.212C50.1787 1.604 50.3307 1.148 50.6347 0.844C50.9387 0.523999 51.3867 0.363999 51.9787 0.363999C52.5547 0.363999 53.0027 0.523999 53.3227 0.844C53.6427 1.148 53.8027 1.604 53.8027 2.212V15.868C53.8027 16.46 53.6427 16.916 53.3227 17.236C53.0187 17.556 52.5787 17.716 52.0027 17.716C51.4267 17.716 50.9787 17.556 50.6587 17.236C50.3547 16.916 50.2027 16.46 50.2027 15.868V14.236L50.4667 15.172C50.2427 15.956 49.7627 16.588 49.0267 17.068C48.3067 17.532 47.4747 17.764 46.5307 17.764ZM47.6107 15.052C48.1387 15.052 48.5947 14.924 48.9787 14.668C49.3627 14.412 49.6667 14.036 49.8907 13.54C50.1147 13.028 50.2267 12.38 50.2267 11.596C50.2267 10.428 49.9867 9.572 49.5067 9.028C49.0267 8.468 48.3947 8.188 47.6107 8.188C47.0987 8.188 46.6427 8.308 46.2427 8.548C45.8587 8.788 45.5547 9.164 45.3307 9.676C45.1227 10.172 45.0187 10.812 45.0187 11.596C45.0187 12.764 45.2587 13.636 45.7387 14.212C46.2187 14.772 46.8427 15.052 47.6107 15.052ZM58.6351 17.716C58.0911 17.716 57.6751 17.564 57.3871 17.26C57.0991 16.956 56.9551 16.532 56.9551 15.988V2.092C56.9551 1.548 57.1071 1.124 57.4111 0.819999C57.7311 0.515999 58.1631 0.363999 58.7071 0.363999C59.1871 0.363999 59.5631 0.459999 59.8351 0.651999C60.1231 0.827999 60.3871 1.14 60.6271 1.588L66.1711 11.716H65.3551L70.8991 1.588C71.1391 1.14 71.3951 0.827999 71.6671 0.651999C71.9551 0.459999 72.3311 0.363999 72.7951 0.363999C73.3391 0.363999 73.7551 0.515999 74.0431 0.819999C74.3471 1.124 74.4991 1.548 74.4991 2.092V15.988C74.4991 16.532 74.3551 16.956 74.0671 17.26C73.7791 17.564 73.3631 17.716 72.8191 17.716C72.2751 17.716 71.8511 17.564 71.5471 17.26C71.2591 16.956 71.1151 16.532 71.1151 15.988V6.268H71.6431L67.1791 14.26C66.9871 14.564 66.7791 14.796 66.5551 14.956C66.3471 15.1 66.0671 15.172 65.7151 15.172C65.3631 15.172 65.0751 15.092 64.8511 14.932C64.6271 14.772 64.4271 14.548 64.2511 14.26L59.7391 6.244H60.3151V15.988C60.3151 16.532 60.1711 16.956 59.8831 17.26C59.6111 17.564 59.1951 17.716 58.6351 17.716ZM83.2826 17.764C82.0186 17.764 80.9146 17.516 79.9706 17.02C79.0426 16.524 78.3226 15.812 77.8106 14.884C77.2986 13.956 77.0426 12.86 77.0426 11.596C77.0426 10.652 77.1866 9.804 77.4746 9.052C77.7626 8.3 78.1786 7.66 78.7226 7.132C79.2826 6.588 79.9466 6.18 80.7146 5.908C81.4826 5.62 82.3386 5.476 83.2826 5.476C84.5466 5.476 85.6426 5.724 86.5706 6.22C87.5146 6.716 88.2426 7.42 88.7546 8.332C89.2826 9.244 89.5466 10.332 89.5466 11.596C89.5466 12.556 89.3946 13.412 89.0906 14.164C88.8026 14.916 88.3866 15.564 87.8426 16.108C87.2986 16.652 86.6346 17.068 85.8506 17.356C85.0826 17.628 84.2266 17.764 83.2826 17.764ZM83.2826 15.052C83.8106 15.052 84.2666 14.924 84.6506 14.668C85.0346 14.412 85.3386 14.036 85.5626 13.54C85.7866 13.028 85.8986 12.38 85.8986 11.596C85.8986 10.428 85.6586 9.572 85.1786 9.028C84.6986 8.468 84.0666 8.188 83.2826 8.188C82.7706 8.188 82.3146 8.308 81.9146 8.548C81.5306 8.788 81.2266 9.164 81.0026 9.676C80.7946 10.172 80.6906 10.812 80.6906 11.596C80.6906 12.764 80.9306 13.636 81.4106 14.212C81.8906 14.772 82.5146 15.052 83.2826 15.052ZM97.4154 17.764C96.1514 17.764 95.0474 17.516 94.1034 17.02C93.1754 16.524 92.4554 15.812 91.9434 14.884C91.4314 13.956 91.1754 12.86 91.1754 11.596C91.1754 10.652 91.3194 9.804 91.6074 9.052C91.8954 8.3 92.3114 7.66 92.8554 7.132C93.4154 6.588 94.0794 6.18 94.8474 5.908C95.6154 5.62 96.4714 5.476 97.4154 5.476C98.6794 5.476 99.7754 5.724 100.703 6.22C101.647 6.716 102.375 7.42 102.887 8.332C103.415 9.244 103.679 10.332 103.679 11.596C103.679 12.556 103.527 13.412 103.223 14.164C102.935 14.916 102.519 15.564 101.975 16.108C101.431 16.652 100.767 17.068 99.9834 17.356C99.2154 17.628 98.3594 17.764 97.4154 17.764ZM97.4154 15.052C97.9434 15.052 98.3994 14.924 98.7834 14.668C99.1674 14.412 99.4714 14.036 99.6954 13.54C99.9194 13.028 100.031 12.38 100.031 11.596C100.031 10.428 99.7914 9.572 99.3114 9.028C98.8314 8.468 98.1994 8.188 97.4154 8.188C96.9034 8.188 96.4474 8.308 96.0474 8.548C95.6634 8.788 95.3594 9.164 95.1354 9.676C94.9274 10.172 94.8234 10.812 94.8234 11.596C94.8234 12.764 95.0634 13.636 95.5434 14.212C96.0234 14.772 96.6474 15.052 97.4154 15.052ZM110.468 17.764C109.444 17.764 108.54 17.516 107.756 17.02C106.988 16.524 106.388 15.812 105.956 14.884C105.524 13.956 105.308 12.86 105.308 11.596C105.308 10.332 105.524 9.244 105.956 8.332C106.388 7.42 106.988 6.716 107.756 6.22C108.54 5.724 109.444 5.476 110.468 5.476C111.396 5.476 112.212 5.7 112.916 6.148C113.636 6.596 114.124 7.18 114.38 7.9H114.116V2.212C114.116 1.604 114.268 1.148 114.572 0.844C114.876 0.523999 115.324 0.363999 115.916 0.363999C116.492 0.363999 116.94 0.523999 117.26 0.844C117.58 1.148 117.74 1.604 117.74 2.212V15.868C117.74 16.46 117.58 16.916 117.26 17.236C116.956 17.556 116.516 17.716 115.94 17.716C115.364 17.716 114.916 17.556 114.596 17.236C114.292 16.916 114.14 16.46 114.14 15.868V14.236L114.404 15.172C114.18 15.956 113.7 16.588 112.964 17.068C112.244 17.532 111.412 17.764 110.468 17.764ZM111.548 15.052C112.076 15.052 112.532 14.924 112.916 14.668C113.3 14.412 113.604 14.036 113.828 13.54C114.052 13.028 114.164 12.38 114.164 11.596C114.164 10.428 113.924 9.572 113.444 9.028C112.964 8.468 112.332 8.188 111.548 8.188C111.036 8.188 110.58 8.308 110.18 8.548C109.796 8.788 109.492 9.164 109.268 9.676C109.06 10.172 108.956 10.812 108.956 11.596C108.956 12.764 109.196 13.636 109.676 14.212C110.156 14.772 110.78 15.052 111.548 15.052Z" fill="black"/>
</svg>
