<svg width="42" height="42" viewBox="0 0 42 42" fill="none" xmlns="http://www.w3.org/2000/svg">
<rect width="42" height="42" rx="6.3" fill="#97CF60"/>
<path fill-rule="evenodd" clip-rule="evenodd" d="M10.1375 17.4935C10.9824 17.6094 11.5733 18.3883 11.4574 19.2332C11.1162 21.7207 11.7219 24.6813 13.309 26.9882C14.8594 29.2415 17.3444 30.8821 20.9218 30.8821C24.5128 30.8821 27.0558 29.2591 28.6673 27.0103C30.3133 24.7133 30.9881 21.7502 30.691 19.2021C30.5922 18.3551 31.1988 17.5884 32.0459 17.4896C32.8929 17.3908 33.6597 17.9974 33.7585 18.8445C34.1407 22.1228 33.29 25.8613 31.1776 28.8091C29.0307 31.8051 25.5825 33.9704 20.9218 33.9704C16.2474 33.9704 12.8442 31.761 10.7648 28.7386C8.72223 25.7698 7.95676 22.0289 8.39786 18.8134C8.51377 17.9686 9.29264 17.3776 10.1375 17.4935Z" fill="white"/>
<circle cx="9.92791" cy="10.685" r="1.54412" fill="white"/>
<circle cx="32.1623" cy="10.685" r="1.54412" fill="white"/>
</svg>
