<svg width="25" height="26" viewBox="0 0 25 26" fill="none" xmlns="http://www.w3.org/2000/svg">
<path d="M12.4998 15.1667C14.2257 15.1667 15.6248 13.7116 15.6248 11.9167C15.6248 10.1218 14.2257 8.66672 12.4998 8.66672C10.7739 8.66672 9.37484 10.1218 9.37484 11.9167C9.37484 13.7116 10.7739 15.1667 12.4998 15.1667Z" stroke="black" stroke-width="2" stroke-linecap="round" stroke-linejoin="round"/>
<path d="M18.3926 18.0451L13.9728 22.6417C13.5821 23.0476 13.0525 23.2755 12.5004 23.2755C11.9482 23.2755 11.4186 23.0476 11.028 22.6417L6.60713 18.0451C5.44174 16.8331 4.64811 15.2888 4.3266 13.6077C4.00509 11.9265 4.17014 10.1839 4.80089 8.60034C5.43163 7.01674 6.49973 5.66322 7.87013 4.71093C9.24053 3.75865 10.8517 3.25037 12.4998 3.25037C14.148 3.25037 15.7591 3.75865 17.1295 4.71093C18.4999 5.66322 19.5681 7.01674 20.1988 8.60034C20.8295 10.1839 20.9946 11.9265 20.6731 13.6077C20.3516 15.2888 19.5579 16.8331 18.3926 18.0451Z" stroke="black" stroke-width="2" stroke-linecap="round" stroke-linejoin="round"/>
</svg>
