<svg width="35" height="23" viewBox="0 0 35 23" fill="none" xmlns="http://www.w3.org/2000/svg">
<path d="M22.2884 3.11328H12.9551V19.8855H22.2884V3.11328Z" fill="#FF5F00"/>
<path d="M13.5476 11.4997C13.5461 9.88439 13.9122 8.28993 14.618 6.83702C15.3238 5.3841 16.351 4.11082 17.6216 3.11355C16.0481 1.8767 14.1583 1.10752 12.1683 0.893928C10.1782 0.680336 8.16825 1.03094 6.36806 1.90568C4.56787 2.78043 3.0501 4.14401 1.98825 5.84057C0.926385 7.53713 0.363281 9.49821 0.363281 11.4997C0.363281 13.5011 0.926385 15.4622 1.98825 17.1588C3.0501 18.8553 4.56787 20.2189 6.36806 21.0937C8.16825 21.9684 10.1782 22.319 12.1683 22.1054C14.1583 21.8918 16.0481 21.1227 17.6216 19.8858C16.351 18.8885 15.3239 17.6152 14.618 16.1623C13.9122 14.7094 13.5461 13.115 13.5476 11.4997Z" fill="#EB001B"/>
<path d="M34.8799 11.4997C34.88 13.5011 34.3169 15.4622 33.2551 17.1587C32.1933 18.8553 30.6756 20.2189 28.8755 21.0936C27.0753 21.9684 25.0654 22.319 23.0753 22.1054C21.0853 21.8918 19.1956 21.1227 17.6221 19.8858C18.8916 18.8875 19.918 17.614 20.6237 16.1613C21.3294 14.7087 21.6961 13.1147 21.6961 11.4997C21.6961 9.88464 21.3294 8.29068 20.6237 6.838C19.918 5.38531 18.8916 4.11182 17.6221 3.11354C19.1956 1.87669 21.0853 1.10751 23.0753 0.893925C25.0654 0.680336 27.0753 1.03096 28.8755 1.90571C30.6756 2.78046 32.1933 4.14404 33.2551 5.8406C34.3169 7.53716 34.88 9.49824 34.8799 11.4997Z" fill="#F79E1B"/>
<path d="M33.8616 18.1093V17.766H34.0001V17.696H33.6475V17.766H33.786V18.1093H33.8616ZM34.5462 18.1093V17.6953H34.4381L34.3138 17.9801L34.1895 17.6953H34.0813V18.1093H34.1576V17.797L34.2742 18.0663H34.3534L34.47 17.7964V18.1093H34.5462Z" fill="#F79E1B"/>
</svg>
