<svg width="76" height="57" viewBox="0 0 76 57" fill="none" xmlns="http://www.w3.org/2000/svg">
<path opacity="0.3" d="M50.7936 0.927543C44.1913 2.21997 39.3515 4.88027 34.6374 7.45869C29.5955 10.2137 24.8366 12.8122 17.8484 14.0552C13.1834 14.9119 8.36317 14.8872 3.49313 14.0647L0.0346106 13.4825L7.08309 55.6018L8.82305 55.9114C13.3647 56.7103 17.8952 56.8519 22.2942 56.3287C22.9917 56.2458 23.6734 56.1486 24.3391 56.0372C31.7683 54.794 37.1266 51.8694 42.3239 49.0429C47.8013 46.0579 52.9669 43.2391 60.5094 42.3394C64.5101 41.8801 68.5565 42.0091 72.5198 42.7223L76.0038 43.3357L68.9524 1.19914L67.231 0.878874C62.7795 0.0537724 58.2283 -0.087221 53.7343 0.460763C52.7489 0.581959 51.7681 0.737647 50.7936 0.927543ZM51.7462 5.80217C52.5785 5.63585 53.4412 5.49485 54.3344 5.37919C55.2631 5.26431 56.1993 5.19383 57.1372 5.14841C57.7713 6.63274 58.956 7.8135 60.4425 8.44253C61.9289 9.07156 63.6014 9.09989 65.1083 8.52154L68.864 30.9645C68.0288 30.9352 67.1962 31.0742 66.4157 31.373C65.6352 31.6718 64.9227 32.1245 64.3205 32.704C63.7183 33.2836 63.2388 33.9782 62.9103 34.7467C62.5819 35.5152 62.4112 36.3419 62.4085 37.1777C61.5777 37.2308 60.7486 37.307 59.9221 37.4062C51.4398 38.4454 45.5856 41.6025 39.9323 44.6879C34.4482 47.679 29.2514 50.5081 21.7135 51.4045C20.7739 51.5112 19.8308 51.5844 18.886 51.6242C18.2494 50.1447 17.0653 48.9688 15.5813 48.3426C14.0974 47.7164 12.4288 47.6884 10.9248 48.2646L7.16905 25.8217C8.00929 25.8511 8.84679 25.7102 9.63115 25.4074C10.4155 25.1047 11.1305 24.6464 11.7331 24.0601C12.3357 23.4738 12.8134 22.7716 13.1376 21.9959C13.4617 21.2201 13.6255 20.3868 13.6192 19.546C15.3375 19.4385 17.0434 19.2569 18.723 18.948C26.5138 17.5631 31.8569 14.6386 37.0286 11.8112C41.5821 9.31798 45.9256 6.96379 51.7462 5.80217ZM36.366 18.5302C36.9598 22.0784 35.808 23.6931 32.2598 24.2869L33.0851 29.2183C34.9985 28.8981 36.566 28.2531 37.8465 27.3772L39.667 38.2559L44.5985 37.4307L41.2974 17.705L36.366 18.5302ZM55.2715 17.9013C54.2906 18.0654 53.415 18.6125 52.8375 19.4222C52.2599 20.2319 52.0277 21.2378 52.1919 22.2188C52.356 23.1997 52.9031 24.0752 53.7128 24.6528C54.5225 25.2303 55.5284 25.4625 56.5094 25.2984C57.4903 25.1342 58.3658 24.5871 58.9434 23.7774C59.5209 22.9678 59.7532 21.9618 59.589 20.9809C59.4248 20 58.8777 19.1244 58.0681 18.5469C57.2584 17.9693 56.2524 17.7371 55.2715 17.9013ZM19.5237 31.4878C18.5428 31.6519 17.6672 32.199 17.0897 33.0087C16.5121 33.8184 16.2799 34.8244 16.444 35.8053C16.6082 36.7862 17.1553 37.6617 17.965 38.2393C18.7747 38.8168 19.7806 39.0491 20.7616 38.8849C21.7425 38.7208 22.618 38.1737 23.1956 37.364C23.7731 36.5543 24.0053 35.5483 23.8412 34.5674C23.677 33.5865 23.1299 32.711 22.3202 32.1334C21.5106 31.5559 20.5046 31.3236 19.5237 31.4878Z" fill="black"/>
</svg>
