<svg width="14" height="15" viewBox="0 0 14 15" fill="none" xmlns="http://www.w3.org/2000/svg">
<path d="M5.6 2.45H8.4C8.4 2.0787 8.2525 1.7226 7.98995 1.46005C7.7274 1.1975 7.3713 1.05 7 1.05C6.6287 1.05 6.2726 1.1975 6.01005 1.46005C5.7475 1.7226 5.6 2.0787 5.6 2.45ZM4.55 2.45C4.55 2.12826 4.61337 1.80967 4.7365 1.51243C4.85962 1.21518 5.04009 0.945092 5.26759 0.717588C5.49509 0.490085 5.76518 0.309619 6.06243 0.186495C6.35967 0.0633711 6.67826 0 7 0C7.32174 0 7.64033 0.0633711 7.93757 0.186495C8.23482 0.309619 8.50491 0.490085 8.73241 0.717588C8.95991 0.945092 9.14038 1.21518 9.2635 1.51243C9.38663 1.80967 9.45 2.12826 9.45 2.45H13.475C13.6142 2.45 13.7478 2.50531 13.8462 2.60377C13.9447 2.70223 14 2.83576 14 2.975C14 3.11424 13.9447 3.24777 13.8462 3.34623C13.7478 3.44469 13.6142 3.5 13.475 3.5H12.551L11.732 11.9777C11.6692 12.6273 11.3666 13.2302 10.8834 13.6688C10.4001 14.1074 9.77082 14.3502 9.1182 14.35H4.8818C4.2293 14.3501 3.60017 14.1071 3.11706 13.6685C2.63396 13.23 2.33151 12.6272 2.2687 11.9777L1.449 3.5H0.525C0.385761 3.5 0.252225 3.44469 0.153769 3.34623C0.0553123 3.24777 0 3.11424 0 2.975C0 2.83576 0.0553123 2.70223 0.153769 2.60377C0.252225 2.50531 0.385761 2.45 0.525 2.45H4.55ZM5.95 5.775C5.95 5.63576 5.89469 5.50223 5.79623 5.40377C5.69777 5.30531 5.56424 5.25 5.425 5.25C5.28576 5.25 5.15223 5.30531 5.05377 5.40377C4.95531 5.50223 4.9 5.63576 4.9 5.775V11.025C4.9 11.1642 4.95531 11.2978 5.05377 11.3962C5.15223 11.4947 5.28576 11.55 5.425 11.55C5.56424 11.55 5.69777 11.4947 5.79623 11.3962C5.89469 11.2978 5.95 11.1642 5.95 11.025V5.775ZM8.575 5.25C8.71424 5.25 8.84777 5.30531 8.94623 5.40377C9.04469 5.50223 9.1 5.63576 9.1 5.775V11.025C9.1 11.1642 9.04469 11.2978 8.94623 11.3962C8.84777 11.4947 8.71424 11.55 8.575 11.55C8.43576 11.55 8.30223 11.4947 8.20377 11.3962C8.10531 11.2978 8.05 11.1642 8.05 11.025V5.775C8.05 5.63576 8.10531 5.50223 8.20377 5.40377C8.30223 5.30531 8.43576 5.25 8.575 5.25ZM3.3138 11.8769C3.35156 12.2666 3.53307 12.6282 3.82296 12.8913C4.11284 13.1544 4.49032 13.3001 4.8818 13.3H9.1182C9.50968 13.3001 9.88716 13.1544 10.177 12.8913C10.4669 12.6282 10.6484 12.2666 10.6862 11.8769L11.4968 3.5H2.5032L3.3138 11.8769Z" fill="black"/>
</svg>
