<svg width="14" height="14" viewBox="0 0 14 14" fill="none" xmlns="http://www.w3.org/2000/svg">
<path fill-rule="evenodd" clip-rule="evenodd" d="M6.22723 1.40445e-08C5.23416 8.46182e-05 4.2555 0.237654 3.37291 0.692889C2.49032 1.14812 1.72939 1.80782 1.15361 2.61694C0.577831 3.42607 0.203895 4.36115 0.0629995 5.34418C-0.0778956 6.32722 0.0183362 7.32969 0.343666 8.26796C0.668997 9.20624 1.21399 10.0531 1.93318 10.7379C2.65237 11.4227 3.5249 11.9256 4.47797 12.2047C5.43105 12.4837 6.43703 12.5307 7.41199 12.3419C8.38694 12.1531 9.30261 11.7338 10.0826 11.1191L12.7583 13.7949C12.8965 13.9283 13.0816 14.0022 13.2737 14.0005C13.4658 13.9988 13.6496 13.9218 13.7854 13.7859C13.9212 13.6501 13.9983 13.4663 14 13.2742C14.0016 13.0821 13.9278 12.897 13.7943 12.7589L11.1186 10.0831C11.8425 9.16479 12.2932 8.06122 12.4192 6.89869C12.5451 5.73617 12.3413 4.56167 11.8309 3.5096C11.3206 2.45752 10.5243 1.57039 9.5333 0.94972C8.54229 0.32905 7.39656 -7.85016e-05 6.22723 1.40445e-08ZM1.46483 6.22776C1.46483 4.96469 1.96658 3.75336 2.8597 2.86023C3.75283 1.96711 4.96416 1.46536 6.22723 1.46536C7.4903 1.46536 8.70164 1.96711 9.59476 2.86023C10.4879 3.75336 10.9896 4.96469 10.9896 6.22776C10.9896 7.49083 10.4879 8.70217 9.59476 9.59529C8.70164 10.4884 7.4903 10.9902 6.22723 10.9902C4.96416 10.9902 3.75283 10.4884 2.8597 9.59529C1.96658 8.70217 1.46483 7.49083 1.46483 6.22776Z" fill="black"/>
</svg>
