<?xml version="1.0" encoding="utf-8"?>
<!-- Generator: Adobe Illustrator 25.3.1, SVG Export Plug-In . SVG Version: 6.00 Build 0)  -->
<svg version="1.1" id="Слой_1" xmlns="http://www.w3.org/2000/svg" xmlns:xlink="http://www.w3.org/1999/xlink" x="0px" y="0px"
	 viewBox="0 0 595.3 595.3" style="enable-background:new 0 0 595.3 595.3;" xml:space="preserve">
<style type="text/css">
	.st0{fill:#A7C947;}
	.st1{fill:#FFFFFF;}
</style>
<g>
	<g>
		<path class="st0" d="M275.2,427l-68.8-68.8l17.3-17.3l59.3,59.3l13.9-13.9L237.7,327l19.3-19.3l59.3,59.3l13.9-13.9l-59.3-59.3
			l17.3-17.3l68.8,68.8c19.5,19.5,22.1,49.4,8,71.8l36.5,36.5c17.6-22.4,28-50.6,28-81.3c0-59.5-39.4-109.7-93.5-126.1l92.5-79.8
			l-38.5-44.6l-94.7,81.7l27-96.4l-56.8-15.9L224.9,236V133.8h-59v233.6c-0.1,1.6-0.1,3.3-0.1,4.9c0,72.8,59,131.8,131.8,131.8
			c33,0,63.2-12.1,86.3-32.2l-37-37C324.7,449.1,294.7,446.5,275.2,427z"/>
	</g>
</g>
</svg>
